<svg xmlns="http://www.w3.org/2000/svg" viewBox="0 0 24 24">
  <path d="M22.8 24h-6.2v-9.3h3l.1-.2a77.7 77.7 0 0 1 .3-3.4h-3.4a.4.4 0 0 1 0-.1v-.8-1.5a3.1 3.1 0 0 1 0-.6 1.1 1.1 0 0 1 1-1 4.3 4.3 0 0 1 .8 0H20c.2 0 .2 0 .2-.2V4l-.1-.2H20h-.2a79.5 79.5 0 0 1-2.4 0h-.1a4.9 4.9 0 0 0-.9 0 5.2 5.2 0 0 0-1 .3 4 4 0 0 0-2.1 2 5.1 5.1 0 0 0-.5 2.2V11h-3c-.2 0-.2.1-.2.2v3.4l.1.1h3V24a1 1 0 0 1 0 .1H1.2a1 1 0 0 0-.1 0A1.3 1.3 0 0 1 0 22.9a.1.1 0 0 0 0-.1V1.3A.7.7 0 0 0 0 1a1.3 1.3 0 0 1 1.1-1 .7.7 0 0 0 .2-.1h21.4a.7.7 0 0 0 .2 0 1.3 1.3 0 0 1 1 1.1.7.7 0 0 0 0 .1h.1v21.6a1.3 1.3 0 0 1-1.1 1.2.7.7 0 0 0-.2 0z" />
</svg>