
<svg xmlns="http://www.w3.org/2000/svg" id="Layer_1" viewBox="0 0 274 114">
  <path d="M63.8 39.2h21.3v-5.3H40.3l11.1-19.2-4.6-2.7L24 51.4 12.6 31.7 8 34.4l23.1 40H9.8v5.3h44.8L43.2 99.3l4.6 2.7 23.1-39.9L82 81.3l4.6-2.7-22.8-39.4zm-6.2 0l10.2 17.6-10.2 17.6H37.2L27.1 56.8l10.2-17.6h20.3zM132.3 39.2v-5.5h-33v46h5.4V60.3h24.6V54.9h-24.6V39.2zM129.6 71.3l7.5-5.5c2.4 3.3 5.2 5.2 10 5.2 4.9 0 8.7-3.1 8.7-6.4 0-3.5-3.4-5.4-9-5.4H144l-.4-6.3L157 42h-17.4l2.4-8.7h31l-2.1 7.6-14.8 11.3c5.8 1.4 9.8 4.7 9.8 11.4a15 15 0 0 1-4.5 10.8 20.6 20.6 0 0 1-14.8 5.6c-8.6.1-14-3.5-17-8.7zM173.6 76.3a17.1 17.1 0 0 1-4.7-12.9c0-8.7 3.1-17.6 9-23.5 4.1-4.1 9.8-6.9 16.7-6.9 5.8 0 10.7 2.1 14.2 5.3l-5.8 7.3a13.6 13.6 0 0 0-9.2-3.5c-3.7 0-6.5 1.2-8.9 3.6-2 2-3.7 4.9-4.7 8.1 2-2 6.2-3.9 10.6-3.9 7.7 0 14 4.6 14 12.8 0 4.5-2 8.9-5.3 12.1a19.3 19.3 0 0 1-13.8 5.7c-5 0-9.3-1.5-12.1-4.2zm18.6-7a7.5 7.5 0 0 0 2.3-5.3c0-3.7-2.8-6-6.9-6a9.4 9.4 0 0 0-6.8 2.6 7.3 7.3 0 0 0-2.2 5.3c0 1.6.7 3.1 1.7 4.1 1.2 1.2 3 2 5.4 2a10 10 0 0 0 6.5-2.7zM250 52a31 31 0 0 1-8.7 21.7 22.2 22.2 0 0 1-16 6.7c-10.8 0-17.9-7.5-17.9-19.1a31 31 0 0 1 8.7-21.7c4.1-4.1 9.5-6.7 15.9-6.7 10.9 0 18 7.6 18 19.1zm-16.8 16a23.8 23.8 0 0 0 6.1-16c0-6.5-3.3-9.9-8.3-9.9-2.8 0-5.3 1.3-7.4 3.3a23.8 23.8 0 0 0-6.1 16c0 6.5 3.3 9.9 8.3 9.9 2.9 0 5.4-1.3 7.4-3.3z" class="st0"/>
</svg>