<svg xmlns="http://www.w3.org/2000/svg" viewBox="0 0 377 114">
  <path d="M73 20h20.8v20.8h4.5V15.6H73zM15.6 40.8V20h20.8v-4.4H11.2v25.2zM93.8 77.4v20.8H73v4.5h25.3V77.4zM36.4 98.2H15.6V77.4h-4.4v25.3h25.2z"/>
  <g>
    <path d="M110.1 16h39.7v12h-25.9v8.4h23.4v11.4h-23.4v17.7h-13.7V16zM153.7 40.9v-.1A26 26 0 0 1 180.5 15a25.7 25.7 0 0 1 26.6 25.6v.1a26 26 0 0 1-26.8 25.8 25.6 25.6 0 0 1-26.6-25.6zm39.4 0v-.1c0-7.2-5.1-13.4-12.7-13.4s-12.6 6.1-12.6 13.2v.1c0 7.2 5.2 13.4 12.8 13.4 7.4.1 12.5-6 12.5-13.2zM211.9 40.9v-.1A25.5 25.5 0 0 1 238 15c10.1 0 16.6 4.3 21 10.3l-10.3 8c-2.8-3.5-6.1-5.8-10.8-5.8-6.9 0-11.8 6-11.8 13.2v.1c0 7.4 4.9 13.2 11.8 13.2 5.2 0 8.2-2.4 11.2-6l10.3 7.4a25.1 25.1 0 0 1-21.9 11.2 25.2 25.2 0 0 1-25.6-25.7zM263 40.9v-.1A26 26 0 0 1 289.8 15a25.7 25.7 0 0 1 26.6 25.6v.1a26 26 0 0 1-26.8 25.8A25.6 25.6 0 0 1 263 40.9zm39.3 0v-.1c0-7.2-5.1-13.4-12.7-13.4S277 33.5 277 40.6v.1c0 7.2 5.2 13.4 12.8 13.4 7.4.1 12.5-6 12.5-13.2zM319 58.2l7.6-9.1c5 3.9 10.3 6 16.1 6 3.8 0 5.7-1.3 5.7-3.4v-.1c0-2.1-1.6-3.2-8.4-4.8-10.6-2.4-18.7-5.4-18.7-15.5V31c0-9.2 7.3-15.9 19.2-15.9 8.4 0 15 2.3 20.4 6.6l-6.9 9.7a24 24 0 0 0-13.9-4.9c-3.3 0-5 1.3-5 3.2v.1c0 2.3 1.7 3.3 8.6 4.8 11.3 2.5 18.4 6.2 18.4 15.4v.1c0 10.1-8 16.2-20 16.2-8.7.1-17-2.6-23.1-8.1z"/>
  </g>
  <g>
    <path d="M110.6 76.9h18.1v1.8h-16.2v10.5H127V91h-14.5v11.6h-1.9V76.9zM133.5 89.8a13 13 0 0 1 13-13.4c7.8 0 12.9 6.2 12.9 13.2v.1a13 13 0 0 1-13 13.3c-7.8 0-12.9-6.2-12.9-13.2zm23.9 0c0-6.4-4.6-11.6-11-11.6-6.3 0-10.9 5.1-10.9 11.5v.1c0 6.3 4.6 11.6 11 11.6 6.3-.1 10.9-5.3 10.9-11.6zM173 78.6h-9v-1.8h19.8v1.8h-9v23.9H173V78.6zM188.5 89.8a13 13 0 0 1 13-13.4c7.8 0 12.9 6.2 12.9 13.2v.1a13 13 0 0 1-13 13.3c-7.8 0-12.9-6.2-12.9-13.2zm23.9 0c0-6.4-4.6-11.6-11-11.6-6.3 0-10.9 5.1-10.9 11.5v.1c0 6.3 4.6 11.6 11 11.6 6.3-.1 10.9-5.3 10.9-11.6zM219.7 89.8c0-7 5-13.4 12.7-13.4 4.2 0 6.8 1.2 9.4 3.4l-1.2 1.4c-2-1.8-4.4-3.1-8.3-3.1-6.2 0-10.6 5.3-10.6 11.5v.1c0 6.6 4.1 11.6 11 11.6 3.3 0 6.3-1.4 8.2-2.9V91h-8.6v-1.8h10.4v9.9a15.2 15.2 0 0 1-10.1 3.9c-8.1 0-12.9-6-12.9-13.2zM249.6 76.9h10.8c3.2 0 5.7 1 7.2 2.5a6.7 6.7 0 0 1 1.9 4.8v.1c0 4.3-3.2 6.8-7.5 7.3l8.5 11h-2.4L259.9 92h-8.4v10.6h-1.9V76.9zm10.6 13.3c4.3 0 7.5-2.2 7.5-5.9v-.1c0-3.4-2.7-5.6-7.4-5.6h-8.8v11.6h8.7zM285.9 76.7h1.8l12 25.9h-2.1l-3.3-7.2h-15.2l-3.3 7.2h-2l12.1-25.9zm7.6 16.9l-6.8-14.9-6.7 14.9h13.5zM305.1 76.9h18.1v1.8H307v10.5h14.5V91H307v11.6h-1.9V76.9zM329.5 76.9h1.9v25.7h-1.9V76.9zM349 76.7h1.8l12 25.9h-2.1l-3.3-7.2h-15.2l-3.3 7.2h-2L349 76.7zm7.7 16.9l-6.8-14.9-6.8 14.9h13.6z"/>
  </g>
</svg>