
<svg xmlns="http://www.w3.org/2000/svg" id="Layer_1" viewBox="0 0 274 114">
  <path d="M6 86.3h13.2v13.1H6V86.3zM45.8 52.2h12.5l19.9 47.2H64.3L61 91H42.8l-3.3 8.4H25.9l19.9-47.2zm11.3 28.6l-5.2-13.3-5.3 13.3h10.5zM82.1 52.5h22.2c7.2 0 12.1 1.9 15.3 5 2.7 2.7 4.2 6.3 4.2 10.9v.1a15 15 0 0 1-9.6 14.5l11.2 16.3h-14.9l-9.4-14.2h-5.8v14.2h-13V52.5zM103.7 75c4.3 0 7-2.1 7-5.6v-.1c0-3.7-2.7-5.6-7-5.6h-8.6V75h8.6zM141 63.9h-14V52.5h41v11.4h-14v35.5h-13V63.9z" class="st0"/>
  <g>
    <path d="M47.3 23.3h15.9v1.6H49v9.3h12.8v1.6H49V46h-1.7V23.3zM68.1 34.7c0-6.2 4.6-11.8 11.4-11.8 6.9 0 11.4 5.5 11.4 11.6v.1c0 6.2-4.6 11.7-11.4 11.7-6.9 0-11.4-5.4-11.4-11.6zm21 0c0-5.7-4.1-10.3-9.7-10.3s-9.6 4.5-9.6 10.1v.1c0 5.6 4.1 10.2 9.7 10.2s9.6-4.5 9.6-10.1zM96.1 34.7c0-6.5 4.8-11.8 11.3-11.8 4 0 6.5 1.5 8.8 3.6l-1.2 1.2c-2-1.9-4.2-3.3-7.6-3.3-5.4 0-9.5 4.4-9.5 10.1v.1c0 5.7 4.2 10.2 9.6 10.2 3.3 0 5.5-1.3 7.8-3.5l1.1 1.1c-2.4 2.4-5 3.9-9 3.9-6.5 0-11.3-5.1-11.3-11.6zM120.5 34.7c0-6.2 4.6-11.8 11.4-11.8 6.9 0 11.4 5.5 11.4 11.6v.1c0 6.2-4.6 11.7-11.4 11.7-6.9 0-11.4-5.4-11.4-11.6zm21 0c0-5.7-4.1-10.3-9.7-10.3s-9.6 4.5-9.6 10.1v.1c0 5.6 4.1 10.2 9.7 10.2s9.6-4.5 9.6-10.1zM148 42.7l1.1-1.3a11 11 0 0 0 8.1 3.4c3.4 0 5.7-1.9 5.7-4.5v-.1c0-2.4-1.3-3.8-6.4-4.8-5.4-1.1-7.6-2.9-7.6-6.4v-.1c0-3.4 3.1-6 7.3-6 3.3 0 5.5.9 7.8 2.7l-1.1 1.3a10 10 0 0 0-6.8-2.6c-3.3 0-5.5 1.9-5.5 4.3v.1c0 2.4 1.2 3.8 6.6 5 5.2 1.1 7.4 2.9 7.4 6.2v.1c0 3.7-3.1 6.2-7.5 6.2-3.6.1-6.3-1.1-9.1-3.5z" class="st0"/>
  </g>
  <g>
    <path d="M232.1 20.3l19.2-1.8 1.8 19.2 4.1-.4L255 14l-23.3 2.2zM178.9 44.6l-1.8-19.2 19.2-1.9-.4-4.1-23.3 2.2 2.2 23.3zM256.3 73.5l1.8 19.1-19.2 1.9.4 4.1 23.3-2.2-2.2-23.3zM203.2 97.7L184 99.5l-1.8-19.2-4.1.4 2.2 23.3 23.3-2.2z" class="st0"/>
  </g>
</svg>