<svg version="1.1" id="el_yv10QUh-G" xmlns="http://www.w3.org/2000/svg" xmlns:xlink="http://www.w3.org/1999/xlink" x="0px" y="0px" viewBox="0 0 274 114" style="enable-background:new 0 0 274 114;" xml:space="preserve"><style>@-webkit-keyframes el_hcF8hFgztv_Animation{0%{opacity: 0;}30%{opacity: 0;}40%{opacity: 1;}65%{opacity: 1;}70%{opacity: 0;}100%{opacity: 0;}}@keyframes el_hcF8hFgztv_Animation{0%{opacity: 0;}30%{opacity: 0;}40%{opacity: 1;}65%{opacity: 1;}70%{opacity: 0;}100%{opacity: 0;}}@-webkit-keyframes el_YWQL2bwLQy_Animation{0%{opacity: 0;}25%{opacity: 0;}35%{opacity: 1;}60%{opacity: 1;}65%{opacity: 0;}100%{opacity: 0;}}@keyframes el_YWQL2bwLQy_Animation{0%{opacity: 0;}25%{opacity: 0;}35%{opacity: 1;}60%{opacity: 1;}65%{opacity: 0;}100%{opacity: 0;}}@-webkit-keyframes el_mo46gKFiIW_Animation{0%{opacity: 0;}20%{opacity: 0;}30%{opacity: 1;}55.00%{opacity: 1;}60%{opacity: 0;}100%{opacity: 0;}}@keyframes el_mo46gKFiIW_Animation{0%{opacity: 0;}20%{opacity: 0;}30%{opacity: 1;}55.00%{opacity: 1;}60%{opacity: 0;}100%{opacity: 0;}}@-webkit-keyframes el_CmxHFHsRwY_Animation{0%{opacity: 0;}13.33%{opacity: 0;}25%{opacity: 1;}50%{opacity: 1;}60%{opacity: 0;}100%{opacity: 0;}}@keyframes el_CmxHFHsRwY_Animation{0%{opacity: 0;}13.33%{opacity: 0;}25%{opacity: 1;}50%{opacity: 1;}60%{opacity: 0;}100%{opacity: 0;}}@-webkit-keyframes el_OQrCZCyfCb_Offx7YSs-_Animation{0%{-webkit-transform: translate(95px, 0px);transform: translate(95px, 0px);}37.50%{-webkit-transform: translate(0px, 0px);transform: translate(0px, 0px);}55.00%{-webkit-transform: translate(0px, 0px);transform: translate(0px, 0px);}75%{-webkit-transform: translate(95px, 0px);transform: translate(95px, 0px);}100%{-webkit-transform: translate(95px, 0px);transform: translate(95px, 0px);}}@keyframes el_OQrCZCyfCb_Offx7YSs-_Animation{0%{-webkit-transform: translate(95px, 0px);transform: translate(95px, 0px);}37.50%{-webkit-transform: translate(0px, 0px);transform: translate(0px, 0px);}55.00%{-webkit-transform: translate(0px, 0px);transform: translate(0px, 0px);}75%{-webkit-transform: translate(95px, 0px);transform: translate(95px, 0px);}100%{-webkit-transform: translate(95px, 0px);transform: translate(95px, 0px);}}@-webkit-keyframes el_hcF8hFgztv_fR7w4JJBt_Animation{0%{-webkit-transform: translate(-180px, 0px);transform: translate(-180px, 0px);}40%{-webkit-transform: translate(0px, 0px);transform: translate(0px, 0px);}65%{-webkit-transform: translate(0px, 0px);transform: translate(0px, 0px);}75%{-webkit-transform: translate(-180px, 0px);transform: translate(-180px, 0px);}100%{-webkit-transform: translate(-180px, 0px);transform: translate(-180px, 0px);}}@keyframes el_hcF8hFgztv_fR7w4JJBt_Animation{0%{-webkit-transform: translate(-180px, 0px);transform: translate(-180px, 0px);}40%{-webkit-transform: translate(0px, 0px);transform: translate(0px, 0px);}65%{-webkit-transform: translate(0px, 0px);transform: translate(0px, 0px);}75%{-webkit-transform: translate(-180px, 0px);transform: translate(-180px, 0px);}100%{-webkit-transform: translate(-180px, 0px);transform: translate(-180px, 0px);}}@-webkit-keyframes el_YWQL2bwLQy_6lKQCToa5_Animation{0%{-webkit-transform: translate(-130px, 0px);transform: translate(-130px, 0px);}35%{-webkit-transform: translate(0px, 0px);transform: translate(0px, 0px);}60%{-webkit-transform: translate(0px, 0px);transform: translate(0px, 0px);}75%{-webkit-transform: translate(-130px, 0px);transform: translate(-130px, 0px);}100%{-webkit-transform: translate(-130px, 0px);transform: translate(-130px, 0px);}}@keyframes el_YWQL2bwLQy_6lKQCToa5_Animation{0%{-webkit-transform: translate(-130px, 0px);transform: translate(-130px, 0px);}35%{-webkit-transform: translate(0px, 0px);transform: translate(0px, 0px);}60%{-webkit-transform: translate(0px, 0px);transform: translate(0px, 0px);}75%{-webkit-transform: translate(-130px, 0px);transform: translate(-130px, 0px);}100%{-webkit-transform: translate(-130px, 0px);transform: translate(-130px, 0px);}}@-webkit-keyframes el_mo46gKFiIW_b02Hy3u62_Animation{0%{-webkit-transform: translate(-100px, 0px);transform: translate(-100px, 0px);}30%{-webkit-transform: translate(0px, 0px);transform: translate(0px, 0px);}55.00%{-webkit-transform: translate(0px, 0px);transform: translate(0px, 0px);}75%{-webkit-transform: translate(-100px, 0px);transform: translate(-100px, 0px);}100%{-webkit-transform: translate(-100px, 0px);transform: translate(-100px, 0px);}}@keyframes el_mo46gKFiIW_b02Hy3u62_Animation{0%{-webkit-transform: translate(-100px, 0px);transform: translate(-100px, 0px);}30%{-webkit-transform: translate(0px, 0px);transform: translate(0px, 0px);}55.00%{-webkit-transform: translate(0px, 0px);transform: translate(0px, 0px);}75%{-webkit-transform: translate(-100px, 0px);transform: translate(-100px, 0px);}100%{-webkit-transform: translate(-100px, 0px);transform: translate(-100px, 0px);}}@-webkit-keyframes el_CmxHFHsRwY_7Tz6MeI-c_Animation{0%{-webkit-transform: translate(-20px, 0px);transform: translate(-20px, 0px);}25%{-webkit-transform: translate(0px, 0px);transform: translate(0px, 0px);}50%{-webkit-transform: translate(0px, 0px);transform: translate(0px, 0px);}75%{-webkit-transform: translate(-60px, 0px);transform: translate(-60px, 0px);}100%{-webkit-transform: translate(-60px, 0px);transform: translate(-60px, 0px);}}@keyframes el_CmxHFHsRwY_7Tz6MeI-c_Animation{0%{-webkit-transform: translate(-20px, 0px);transform: translate(-20px, 0px);}25%{-webkit-transform: translate(0px, 0px);transform: translate(0px, 0px);}50%{-webkit-transform: translate(0px, 0px);transform: translate(0px, 0px);}75%{-webkit-transform: translate(-60px, 0px);transform: translate(-60px, 0px);}100%{-webkit-transform: translate(-60px, 0px);transform: translate(-60px, 0px);}}@-webkit-keyframes el_OQrCZCyfCb_q6xKS-Gbo_Animation{0%{-webkit-transform: rotate(0deg);transform: rotate(0deg);}37.50%{-webkit-transform: rotate(-180deg);transform: rotate(-180deg);}55.00%{-webkit-transform: rotate(-240deg);transform: rotate(-240deg);}75%{-webkit-transform: rotate(-60deg);transform: rotate(-60deg);}100%{-webkit-transform: rotate(-300deg);transform: rotate(-300deg);}}@keyframes el_OQrCZCyfCb_q6xKS-Gbo_Animation{0%{-webkit-transform: rotate(0deg);transform: rotate(0deg);}37.50%{-webkit-transform: rotate(-180deg);transform: rotate(-180deg);}55.00%{-webkit-transform: rotate(-240deg);transform: rotate(-240deg);}75%{-webkit-transform: rotate(-60deg);transform: rotate(-60deg);}100%{-webkit-transform: rotate(-300deg);transform: rotate(-300deg);}}#el_yv10QUh-G *{-webkit-animation-duration: 4s;animation-duration: 4s;-webkit-animation-iteration-count: infinite;animation-iteration-count: infinite;-webkit-animation-timing-function: cubic-bezier(0, 0, 1, 1);animation-timing-function: cubic-bezier(0, 0, 1, 1);}#el_OQrCZCyfCb{fill: #231F20;}#el_CmxHFHsRwY{fill: #231F20;-webkit-animation-name: el_CmxHFHsRwY_Animation;animation-name: el_CmxHFHsRwY_Animation;-webkit-animation-timing-function: cubic-bezier(0.42, 0, 0.58, 1);animation-timing-function: cubic-bezier(0.42, 0, 0.58, 1);}#el_mo46gKFiIW{fill: #231F20;-webkit-animation-name: el_mo46gKFiIW_Animation;animation-name: el_mo46gKFiIW_Animation;-webkit-animation-timing-function: cubic-bezier(0.42, 0, 0.58, 1);animation-timing-function: cubic-bezier(0.42, 0, 0.58, 1);}#el_YWQL2bwLQy{fill: #231F20;-webkit-animation-name: el_YWQL2bwLQy_Animation;animation-name: el_YWQL2bwLQy_Animation;-webkit-animation-timing-function: cubic-bezier(0.42, 0, 0.58, 1);animation-timing-function: cubic-bezier(0.42, 0, 0.58, 1);}#el_hcF8hFgztv{fill: #231F20;-webkit-animation-name: el_hcF8hFgztv_Animation;animation-name: el_hcF8hFgztv_Animation;-webkit-animation-timing-function: cubic-bezier(0.42, 0, 0.58, 1);animation-timing-function: cubic-bezier(0.42, 0, 0.58, 1);}#el_OQrCZCyfCb_q6xKS-Gbo{-webkit-transform-origin: 50% 50%;transform-origin: 50% 50%;transform-box: fill-box;-webkit-transform: rotate(0deg);transform: rotate(0deg);-webkit-animation-name: el_OQrCZCyfCb_q6xKS-Gbo_Animation;animation-name: el_OQrCZCyfCb_q6xKS-Gbo_Animation;-webkit-animation-timing-function: cubic-bezier(0.42, 0, 0.58, 1);animation-timing-function: cubic-bezier(0.42, 0, 0.58, 1);}#el_OQrCZCyfCb_mRuJT3Q_E{-webkit-transform-origin: 50% 50%;transform-origin: 50% 50%;transform-box: fill-box;}#el_CmxHFHsRwY_7Tz6MeI-c{-webkit-animation-name: el_CmxHFHsRwY_7Tz6MeI-c_Animation;animation-name: el_CmxHFHsRwY_7Tz6MeI-c_Animation;-webkit-transform-origin: 50% 50%;transform-origin: 50% 50%;transform-box: fill-box;-webkit-animation-timing-function: cubic-bezier(0.42, 0, 0.58, 1);animation-timing-function: cubic-bezier(0.42, 0, 0.58, 1);}#el_mo46gKFiIW_b02Hy3u62{-webkit-animation-name: el_mo46gKFiIW_b02Hy3u62_Animation;animation-name: el_mo46gKFiIW_b02Hy3u62_Animation;-webkit-transform-origin: 50% 50%;transform-origin: 50% 50%;transform-box: fill-box;-webkit-animation-timing-function: cubic-bezier(0.42, 0, 0.58, 1);animation-timing-function: cubic-bezier(0.42, 0, 0.58, 1);}#el_YWQL2bwLQy_6lKQCToa5{-webkit-animation-name: el_YWQL2bwLQy_6lKQCToa5_Animation;animation-name: el_YWQL2bwLQy_6lKQCToa5_Animation;-webkit-transform-origin: 50% 50%;transform-origin: 50% 50%;transform-box: fill-box;-webkit-animation-timing-function: cubic-bezier(0.42, 0, 0.58, 1);animation-timing-function: cubic-bezier(0.42, 0, 0.58, 1);}#el_hcF8hFgztv_fR7w4JJBt{-webkit-animation-name: el_hcF8hFgztv_fR7w4JJBt_Animation;animation-name: el_hcF8hFgztv_fR7w4JJBt_Animation;-webkit-transform-origin: 50% 50%;transform-origin: 50% 50%;transform-box: fill-box;-webkit-animation-timing-function: cubic-bezier(0.42, 0, 0.58, 1);animation-timing-function: cubic-bezier(0.42, 0, 0.58, 1);}#el_OQrCZCyfCb_Offx7YSs-{-webkit-transform-origin: 50% 50%;transform-origin: 50% 50%;transform-box: fill-box;-webkit-animation-name: el_OQrCZCyfCb_Offx7YSs-_Animation;animation-name: el_OQrCZCyfCb_Offx7YSs-_Animation;-webkit-animation-timing-function: cubic-bezier(0.42, 0, 0.58, 1);animation-timing-function: cubic-bezier(0.42, 0, 0.58, 1);}</style>

<g id="el_1mHN4kQlF6">
	<g id="el_jnZqYNiHLe">
		<g id="el_OQrCZCyfCb_Offx7YSs-" data-animator-group="true" data-animator-type="0"><g id="el_OQrCZCyfCb_q6xKS-Gbo" data-animator-group="true" data-animator-type="1"><path d="M63.8,39.2h21.3v-5.3H40.3l11.1-19.2L46.8,12L24,51.4L12.6,31.7L8,34.4l23.1,40H9.8v5.3h44.8L43.2,99.3&#10;&#9;&#9;&#9;l4.6,2.7l23.1-39.9l11.1,19.2l4.6-2.7L63.8,39.2z M57.6,39.2l10.2,17.6L57.6,74.4H37.2L27.1,56.8l10.2-17.6H57.6z" id="el_OQrCZCyfCb"/></g></g>
	</g>
	<g id="el_lRXiRjIPcl">
		<g id="el_CmxHFHsRwY_7Tz6MeI-c" data-animator-group="true" data-animator-type="0"><polygon points="132.3,39.2 132.3,33.7 99.3,33.7 99.3,35.4 99.3,79.7 104.5,79.7 104.7,79.7 104.7,60.3 129.3,60.3 &#10;&#9;&#9;&#9;129.3,59.7 129.3,54.9 129.3,54.9 104.7,54.9 104.7,39.2 &#9;&#9;" id="el_CmxHFHsRwY"/></g>
		<g id="el_mo46gKFiIW_b02Hy3u62" data-animator-group="true" data-animator-type="0"><path d="M129.6,71.3l7.5-5.5c2.4,3.3,5.2,5.2,10,5.2c4.9,0,8.7-3.1,8.7-6.4c0-3.5-3.4-5.4-9-5.4h-2.8l-0.4-6.3L157,42&#10;&#9;&#9;&#9;h-17.4l2.4-8.7h31l-2.1,7.6l-14.8,11.3c5.8,1.4,9.8,4.7,9.8,11.4c0,4.2-1.6,7.9-4.5,10.8c-3.5,3.5-8.7,5.6-14.8,5.6&#10;&#9;&#9;&#9;C138,80.1,132.6,76.5,129.6,71.3z" id="el_mo46gKFiIW"/></g>
		<g id="el_YWQL2bwLQy_6lKQCToa5" data-animator-group="true" data-animator-type="0"><path d="M173.6,76.3c-3.1-3.1-4.7-7.2-4.7-12.9c0-8.7,3.1-17.6,9-23.5c4.1-4.1,9.8-6.9,16.7-6.9&#10;&#9;&#9;&#9;c5.8,0,10.7,2.1,14.2,5.3l-5.8,7.3c-2.4-2.1-5.4-3.5-9.2-3.5c-3.7,0-6.5,1.2-8.9,3.6c-2,2-3.7,4.9-4.7,8.1c2-2,6.2-3.9,10.6-3.9&#10;&#9;&#9;&#9;c7.7,0,14,4.6,14,12.8c0,4.5-2,8.9-5.3,12.1c-3.5,3.5-8.3,5.7-13.8,5.7C180.7,80.5,176.4,79,173.6,76.3z M192.2,69.3&#10;&#9;&#9;&#9;c1.5-1.5,2.3-3.4,2.3-5.3c0-3.7-2.8-6-6.9-6c-2.9,0-5.4,1.1-6.8,2.6c-1.5,1.5-2.2,3.3-2.2,5.3c0,1.6,0.7,3.1,1.7,4.1&#10;&#9;&#9;&#9;c1.2,1.2,3,2,5.4,2C188.4,71.9,190.6,70.8,192.2,69.3z" id="el_YWQL2bwLQy"/></g>
		<g id="el_hcF8hFgztv_fR7w4JJBt" data-animator-group="true" data-animator-type="0"><path d="M250,52c0,7.8-3,16.1-8.7,21.7c-4.1,4.1-9.5,6.7-16,6.7c-10.8,0-17.9-7.5-17.9-19.1c0-7.8,3-16.1,8.7-21.7&#10;&#9;&#9;&#9;c4.1-4.1,9.5-6.7,15.9-6.7C242.9,32.9,250,40.5,250,52z M233.2,68c3.9-3.9,6.1-10.4,6.1-16c0-6.5-3.3-9.9-8.3-9.9&#10;&#9;&#9;&#9;c-2.8,0-5.3,1.3-7.4,3.3c-3.9,3.9-6.1,10.4-6.1,16c0,6.5,3.3,9.9,8.3,9.9C228.7,71.3,231.2,70,233.2,68z" id="el_hcF8hFgztv"/></g>
	</g>
</g>
<script>(function(){var a=document.querySelector('#el_yv10QUh-G'),b=a.querySelectorAll('style'),c=function(d){b.forEach(function(f){var g=f.textContent;g&amp;&amp;(f.textContent=g.replace(/transform-box:[^;\r\n]*/gi,'transform-box: '+d))})};c('initial'),window.requestAnimationFrame(function(){return c('fill-box')})})();</script></svg>