<svg xmlns="http://www.w3.org/2000/svg" id="Layer_1" viewBox="0 0 576 144">
  <path d="M63.8 38.2a22.4 22.4 0 0 1 22.4-22.1c6.7 0 11.5 2.6 15.1 6.1L97 26.5a15.8 15.8 0 0 0-26.7 11.7c0 8.8 6.9 16 15.8 16 5.8 0 9-2.3 11.1-4.4 1.7-1.7 2.9-4.2 3.3-7.6H86.2v-6h20.3c.2 1.1.3 2.4.3 3.8 0 4.5-1.2 10.1-5.2 14.1-3.9 4-8.8 6.2-15.4 6.2a22.4 22.4 0 0 1-22.4-22.1M123.2 31.9a14 14 0 0 0-14.3 14.2c0 8.2 6.4 14.2 14.3 14.2s14.3-6 14.3-14.2a14 14 0 0 0-14.3-14.2m0 22.8c-4.3 0-8-3.6-8-8.6 0-5.1 3.7-8.6 8-8.6s8 3.5 8 8.6a8.1 8.1 0 0 1-8 8.6M154.3 31.9A14 14 0 0 0 140 46.1a14 14 0 0 0 14.3 14.2 14 14 0 0 0 14.3-14.2 14 14 0 0 0-14.3-14.2m0 22.8c-4.3 0-8-3.6-8-8.6 0-5.1 3.7-8.6 8-8.6s8 3.5 8 8.6c.1 5.1-3.6 8.6-8 8.6M192.5 32.8v2.3h-.2a9.8 9.8 0 0 0-7.5-3.2c-7.1 0-13.6 6.2-13.6 14.3a14 14 0 0 0 13.6 14.2c3.4 0 6.1-1.5 7.5-3.2h.2v2c0 5.4-2.9 8.3-7.6 8.3a7.9 7.9 0 0 1-7.2-5.1l-5.4 2.3c1.6 3.8 5.7 8.4 12.6 8.4 7.3 0 13.5-4.3 13.5-14.8V32.8h-5.9zm-7.1 21.9c-4.3 0-7.9-3.6-7.9-8.6s3.6-8.7 7.9-8.7c4.3 0 7.6 3.7 7.6 8.7 0 5-3.4 8.6-7.6 8.6M202.8 17.7h6.2v41.8h-6.2zM226.1 54.7c-3.2 0-5.4-1.5-6.9-4.3l19-7.9-.6-1.6c-1.2-3.2-4.8-9-12.2-9-7.3 0-13.4 5.8-13.4 14.2 0 8 6 14.2 14.1 14.2a14 14 0 0 0 11.8-6.3l-4.8-3.2a8 8 0 0 1-7 3.9m-.5-17.3c2.5 0 4.6 1.2 5.3 3l-12.7 5.3a7.8 7.8 0 0 1 7.4-8.3" class="st0"/>
  <g>
    <path d="M319.8 117.1c-2.2 0-3.9-.7-5.4-2a7.7 7.7 0 0 1-2.2-5.5V94.8h-4.6v-4.5h4.6v-8.1h5v8.1h6.5v4.5h-6.5v13.1c0 1.8.3 3 1 3.6.7.6 1.5.9 2.3.9l1.2-.1 1-.3 1.6 4.4c-1.3.4-2.8.7-4.5.7zM332.4 116.6h-5V90.3h4.7v4.3h.2a7 7 0 0 1 3.1-3.6c1.6-1 3.1-1.5 4.6-1.5 1.4 0 2.7.2 3.7.6l-1.5 4.8c-.6-.2-1.6-.4-2.9-.4-1.9 0-3.5.8-4.9 2.3a7.6 7.6 0 0 0-2.1 5.3v14.5z" class="st0"/>
    <path fill="#fff" fill-rule="evenodd" d="M291.1 82.7h-28.7a4 4 0 0 0-4.1 4.1v26.5a4 4 0 0 0 1.8 3.4l16.6 11.1 16.6-11.1a4 4 0 0 0 1.8-3.4V86.8a4 4 0 0 0-4-4.1zm-18.4 30.7l-10.2-10.2 2.9-2.9 7.3 7.3 15.5-15.5 2.9 2.9-18.4 18.4z" clip-rule="evenodd"/>
    <path d="M369.6 116.6h-4.7V113h-.2a8.4 8.4 0 0 1-3.5 3.2 9.7 9.7 0 0 1-4.9 1.3c-3.2 0-5.7-.9-7.5-2.8a11.2 11.2 0 0 1-2.6-7.9V90.3h5v16.3c.1 4.3 2.3 6.5 6.5 6.5 2 0 3.6-.8 5-2.4 1.3-1.6 2-3.5 2-5.7V90.3h5v26.3zM394.9 109.3c0 2.3-1 4.2-3 5.8-2 1.6-4.5 2.4-7.6 2.4a11.8 11.8 0 0 1-11.3-7.6l4.4-1.9a8.1 8.1 0 0 0 2.8 3.7c1.2.9 2.6 1.3 4.1 1.3 1.6 0 2.9-.3 4-1s1.6-1.5 1.6-2.4c0-1.7-1.3-2.9-3.9-3.7l-4.5-1.1c-5.1-1.3-7.7-3.8-7.7-7.4a7 7 0 0 1 2.9-5.8c2-1.5 4.5-2.2 7.5-2.2 2.3 0 4.4.6 6.3 1.7a9.2 9.2 0 0 1 4 4.5l-4.4 1.8c-.5-1.1-1.3-2-2.4-2.6s-2.4-.9-3.8-.9c-1.3 0-2.4.3-3.5 1s-1.5 1.4-1.5 2.4c0 1.5 1.4 2.6 4.3 3.2l4 1c5.1 1.2 7.7 3.8 7.7 7.8zM409.1 117.1c-2.2 0-3.9-.7-5.4-2a7.7 7.7 0 0 1-2.2-5.5V94.8H397v-4.5h4.6v-8.1h5v8.1h6.5v4.5h-6.5v13.1c0 1.8.3 3 1 3.6.7.6 1.5.9 2.3.9l1.2-.1 1-.3 1.6 4.4c-1.3.4-2.8.7-4.6.7zM427.8 117.5c-3.9 0-7.1-1.3-9.6-4s-3.8-6-3.8-10.1c0-4 1.2-7.4 3.7-10a12 12 0 0 1 9.4-4c3.9 0 7 1.3 9.3 3.8 2.3 2.5 3.5 6.1 3.5 10.6l-.1.5h-20.7c.1 2.6.9 4.7 2.6 6.2a8 8 0 0 0 5.9 2.4c3.2 0 5.6-1.6 7.4-4.7l4.4 2.2c-1.2 2.2-2.8 4-4.9 5.2s-4.4 1.9-7.1 1.9zm-7.9-17.2H435a6.5 6.5 0 0 0-2.2-4.5 7.7 7.7 0 0 0-5.4-1.8c-1.9 0-3.5.6-4.8 1.7a7.4 7.4 0 0 0-2.7 4.6zM455.3 117.5c-3.4 0-6.4-1.4-8.9-4.1a14.9 14.9 0 0 1-3.7-10c0-3.9 1.2-7.2 3.7-10 2.5-2.7 5.4-4.1 8.9-4.1 1.9 0 3.7.4 5.3 1.2 1.6.8 2.8 1.9 3.7 3.3h.2l-.2-3.7v-12h5v38.5h-4.7V113h-.2a9.1 9.1 0 0 1-3.7 3.3c-1.7.8-3.5 1.2-5.4 1.2zm.8-4.5a8 8 0 0 0 6-2.6 10 10 0 0 0 2.4-6.9c0-2.8-.8-5-2.4-6.8a7.7 7.7 0 0 0-6-2.7c-2.4 0-4.4.9-6 2.7s-2.4 4.1-2.4 6.8c0 2.8.8 5.1 2.4 6.8a7.8 7.8 0 0 0 6 2.7z" class="st0"/>
  </g>
  <g>
    <path d="M280 49.2c0 3.4-1.2 6.1-3.7 8.1s-5.6 3-9.1 3c-3.2 0-6-.9-8.4-2.8a15.1 15.1 0 0 1-5.1-7.6l4.7-1.9a11.6 11.6 0 0 0 3.3 5.5 8.7 8.7 0 0 0 5.6 2.2c2.3 0 4.1-.6 5.5-1.7a5.9 5.9 0 0 0 2.2-4.7c0-1.6-.6-3-1.8-4.1A16.6 16.6 0 0 0 267 42c-3.1-1.1-5-1.9-5.8-2.3-4.1-2.1-6.1-5.1-6.1-9.2 0-2.8 1.1-5.3 3.4-7.3s5.1-3 8.4-3c2.9 0 5.5.8 7.6 2.3 2.2 1.5 3.6 3.3 4.3 5.5l-4.6 1.9a7.3 7.3 0 0 0-7.3-5c-1.9 0-3.6.5-4.9 1.6-1.3 1-2 2.3-2 3.9 0 1.3.5 2.5 1.6 3.4 1.1 1 3.6 2.1 7.5 3.4 3.9 1.3 6.7 3 8.4 4.9 1.6 1.9 2.5 4.3 2.5 7.1zM293.3 59.9c-2.2 0-3.9-.7-5.4-2a7.7 7.7 0 0 1-2.2-5.5V37.6h-4.6v-4.5h4.6V25h5v8.1h6.5v4.5h-6.5v13.1c0 1.8.3 3 1 3.6.7.6 1.5.9 2.3.9l1.2-.1 1-.3 1.6 4.4c-1.3.4-2.8.7-4.5.7zM305.9 59.4h-5V33.1h4.7v4.3h.2a7 7 0 0 1 3.1-3.6c1.6-1 3.1-1.5 4.6-1.5 1.4 0 2.7.2 3.7.6l-1.5 4.8c-.6-.3-1.6-.4-2.9-.4-1.9 0-3.5.8-4.9 2.3a7.6 7.6 0 0 0-2.1 5.3v14.5zM330.4 60.3c-3.9 0-7.1-1.3-9.6-4s-3.8-6-3.8-10.1c0-4 1.2-7.4 3.7-10a12 12 0 0 1 9.4-4c3.9 0 7 1.3 9.3 3.8 2.3 2.5 3.5 6.1 3.5 10.6l-.1.5h-20.7c.1 2.6.9 4.7 2.6 6.2a8 8 0 0 0 5.9 2.4c3.2 0 5.6-1.6 7.4-4.7l4.4 2.2c-1.2 2.2-2.8 4-4.9 5.2s-4.4 1.9-7.1 1.9zm-7.9-17.2h15.1a6.5 6.5 0 0 0-2.2-4.5 7.7 7.7 0 0 0-5.4-1.8c-1.9 0-3.5.6-4.8 1.7a8.2 8.2 0 0 0-2.7 4.6zM358.7 60.3c-3.9 0-7.1-1.3-9.6-4s-3.8-6-3.8-10.1c0-4 1.2-7.4 3.7-10a12 12 0 0 1 9.4-4c3.9 0 7 1.3 9.3 3.8 2.3 2.5 3.5 6.1 3.5 10.6l-.1.5h-20.7c.1 2.6.9 4.7 2.6 6.2a8 8 0 0 0 5.9 2.4c3.2 0 5.6-1.6 7.4-4.7l4.4 2.2c-1.2 2.2-2.8 4-4.9 5.2s-4.4 1.9-7.1 1.9zm-7.9-17.2H366a6.5 6.5 0 0 0-2.2-4.5 7.7 7.7 0 0 0-5.4-1.8 7.8 7.8 0 0 0-7.6 6.3zM384.7 59.9c-2.2 0-3.9-.7-5.4-2a7.7 7.7 0 0 1-2.2-5.5V37.6h-4.6v-4.5h4.6V25h5v8.1h6.5v4.5h-6.5v13.1c0 1.8.3 3 1 3.6.7.6 1.5.9 2.3.9l1.2-.1 1-.3 1.6 4.4c-1.3.4-2.8.7-4.5.7zM418.8 59.4h-5.2L400 20.9h5.5L416 52.2h.2l11-31.3h5.5l-13.9 38.5zM442.2 24c0 1-.3 1.8-1 2.5s-1.5 1-2.5 1-1.8-.3-2.5-1-1-1.5-1-2.5.3-1.8 1-2.5 1.5-1 2.5-1 1.8.3 2.5 1 1 1.5 1 2.5zm-1 9.1v26.4h-5V33.1h5zM458.5 60.3c-3.9 0-7.1-1.3-9.6-4s-3.8-6-3.8-10.1c0-4 1.2-7.4 3.7-10a12 12 0 0 1 9.4-4c3.9 0 7 1.3 9.3 3.8 2.3 2.5 3.5 6.1 3.5 10.6l-.1.5h-20.7c.1 2.6.9 4.7 2.6 6.2a8 8 0 0 0 5.9 2.4c3.2 0 5.6-1.6 7.4-4.7l4.4 2.2c-1.2 2.2-2.8 4-4.9 5.2s-4.5 1.9-7.1 1.9zm-8-17.2h15.1a6.5 6.5 0 0 0-2.2-4.5 7.7 7.7 0 0 0-5.4-1.8c-1.9 0-3.5.6-4.8 1.7a8.9 8.9 0 0 0-2.7 4.6zM511.4 33.1l-8.5 26.4h-5.1l-6.6-20.2-6.5 20.2h-5l-8.5-26.4h5.2l5.9 19.9h.1l6.5-19.9h5.1l6.5 19.9h.1l5.8-19.9h5z" class="st0"/>
  </g>
</svg>